<svg xmlns="http://www.w3.org/2000/svg" viewBox="0 0 17.18 19.29"><defs><style>.cls-1{fill:#a1e1f4;}.cls-2{fill:#ffeef4;}.cls-3{fill:#e21033;}.cls-4{fill:#47271c;}.cls-5{fill:#fff;stroke:#47271c;stroke-miterlimit:10;stroke-width:0.19px;}</style></defs><g id="Layer_2" data-name="Layer 2"><g id="icon"><g id="icon-2" data-name="icon"><path class="cls-1" d="M14.69,13.54s-1,3.2-1.78,4-7.81.65-8.44,0c-.94-1-1.83-4.07-1.83-4.07a9.59,9.59,0,0,0,2.76.27,33.33,33.33,0,0,0,3.82-.55,7.55,7.55,0,0,0,3.11.95A6.35,6.35,0,0,0,14.69,13.54Z"/><path class="cls-2" d="M9.65,5.67a3,3,0,0,1,4.1,1.25S16.33,7.55,16,9.7a3.23,3.23,0,0,1-3.3,2.54,4.83,4.83,0,0,1-3-1.42s-3.81,1.1-5,.89c0,0-3.15.36-3.26-1.66S3.21,8.63,3.81,9a5.15,5.15,0,0,1-.35-1.8A1.88,1.88,0,0,1,5.4,5.27,16.8,16.8,0,0,1,9.65,5.67Z"/><path class="cls-3" d="M8.64.47S10,.61,10,1.82A1.46,1.46,0,0,1,8.35,3.14,1.39,1.39,0,0,1,7.06,1.87,1.37,1.37,0,0,1,8.64.47Z"/><path class="cls-4" d="M15.51,12.78A18.08,18.08,0,0,1,14,18a1.89,1.89,0,0,1-.53.62,2.8,2.8,0,0,1-.71.29,9.78,9.78,0,0,1-1.38.25,25.28,25.28,0,0,1-2.74.1,25.19,25.19,0,0,1-2.73-.1,8.34,8.34,0,0,1-1.38-.25,3,3,0,0,1-.72-.29A1.85,1.85,0,0,1,3.29,18a18.08,18.08,0,0,1-1.51-5.25c.3.85.58,1.71.91,2.54a12.74,12.74,0,0,0,1.1,2.39,1.22,1.22,0,0,0,.37.38,1.9,1.9,0,0,0,.54.19A8.77,8.77,0,0,0,6,18.46a26.11,26.11,0,0,0,2.66.06c.91,0,1.79,0,2.67-.06a7.59,7.59,0,0,0,1.28-.18,2.44,2.44,0,0,0,.54-.18,1.4,1.4,0,0,0,.37-.39,12.74,12.74,0,0,0,1.1-2.39C14.93,14.49,15.21,13.63,15.51,12.78Z"/><path class="cls-4" d="M9.51,4.93a4,4,0,0,1,2.59-.52,2.9,2.9,0,0,1,1.26.51,4.06,4.06,0,0,1,1,1l-.07-.06A5.08,5.08,0,0,1,17,8.26,2.7,2.7,0,0,1,17,10.18a5.06,5.06,0,0,1-1,1.61,5,5,0,0,1-3.24,1.82,4.93,4.93,0,0,1-3.55-1.25l.34.09A23,23,0,0,1,6,13.07a9.51,9.51,0,0,1-3.7-.26A3.17,3.17,0,0,1,.69,11.68,3.28,3.28,0,0,1,0,9.83,2.69,2.69,0,0,1,.72,7.94a1.92,1.92,0,0,1,2-.64l-.45.38a3.73,3.73,0,0,1,.47-2.5A2.66,2.66,0,0,1,5,4.11a12.22,12.22,0,0,0,2.31.09,4.3,4.3,0,0,0,2.07-.78,2.15,2.15,0,0,0,1-1.82A1.52,1.52,0,0,0,9.91.65a2,2,0,0,0-1-.44,1.92,1.92,0,0,0-2,.69,2,2,0,0,0,.18,2.17A2,2,0,0,1,6.8.85,2.08,2.08,0,0,1,8.93,0a1.91,1.91,0,0,1,1.73,1.54,2.46,2.46,0,0,1-1,2.17,4.65,4.65,0,0,1-2.24.94A12.46,12.46,0,0,1,5,4.67a2.05,2.05,0,0,0-1.76.87,3.12,3.12,0,0,0-.34,2L3,8.13l-.53-.19a1.24,1.24,0,0,0-1.22.48A1.91,1.91,0,0,0,.72,9.8a2.56,2.56,0,0,0,.56,1.44,2.37,2.37,0,0,0,1.28.85,9.6,9.6,0,0,0,3.4.23,22.48,22.48,0,0,0,3.46-.56l.19,0,.15.13a4.28,4.28,0,0,0,3,1.1,4.52,4.52,0,0,0,2.86-1.55,2.88,2.88,0,0,0,.92-3,4.87,4.87,0,0,0-2.41-2.3l-.05,0,0,0a3.82,3.82,0,0,0-.85-.94,2.6,2.6,0,0,0-1.15-.54A4,4,0,0,0,9.51,4.93Z"/><path class="cls-4" d="M4.23,14.23a2.5,2.5,0,0,1,.63.67,3.09,3.09,0,0,1,.43.8,2.77,2.77,0,0,1,.11,1.82c-.14-.29-.23-.56-.34-.82s-.21-.53-.31-.79-.2-.53-.29-.81S4.29,14.54,4.23,14.23Z"/><path class="cls-4" d="M12.91,14.23a7.37,7.37,0,0,1-.23.87c-.08.28-.19.54-.28.81s-.2.53-.32.79-.2.53-.34.82a2.84,2.84,0,0,1,.11-1.82,3.84,3.84,0,0,1,.43-.8A2.67,2.67,0,0,1,12.91,14.23Z"/><path class="cls-4" d="M7.14,14.23a2.6,2.6,0,0,1,.41.77,3.42,3.42,0,0,1,.18.83,3.1,3.1,0,0,1-.26,1.69,5.26,5.26,0,0,1-.2-.83c-.06-.26-.08-.53-.12-.8s-.05-.53,0-.81A4.9,4.9,0,0,1,7.14,14.23Z"/><path class="cls-4" d="M10,14.23a4.9,4.9,0,0,1,0,.85,7.2,7.2,0,0,1,0,.81c0,.27-.06.54-.12.8a4.35,4.35,0,0,1-.2.83,3.1,3.1,0,0,1-.26-1.69A3,3,0,0,1,9.6,15,2.36,2.36,0,0,1,10,14.23Z"/><path class="cls-4" d="M6,7.32a.34.34,0,0,1-.17.11l-.57.2a.39.39,0,0,1-.49-.24A.37.37,0,0,1,5,6.9l.57-.2a.39.39,0,0,1,.49.24A.37.37,0,0,1,6,7.32Z"/><path class="cls-4" d="M9.8,7.28a.34.34,0,0,1-.15-.14l-.32-.51a.39.39,0,0,1,.13-.53.4.4,0,0,1,.54.13l.31.51a.38.38,0,0,1-.13.53A.39.39,0,0,1,9.8,7.28Z"/><path class="cls-4" d="M4.62,10.55a.37.37,0,0,1-.21,0l-.58-.16A.38.38,0,1,1,4,9.65l.58.16a.38.38,0,0,1,.27.47A.37.37,0,0,1,4.62,10.55Z"/><path class="cls-4" d="M14.34,8.5a.37.37,0,0,1-.19.09l-.6.09a.39.39,0,0,1-.12-.77l.6-.09a.39.39,0,0,1,.44.33A.35.35,0,0,1,14.34,8.5Z"/><path class="cls-4" d="M8.09,9.55a.36.36,0,0,1,.06-.2l.33-.49a.39.39,0,0,1,.66.42l-.34.5a.39.39,0,0,1-.54.11A.4.4,0,0,1,8.09,9.55Z"/><path class="cls-4" d="M12.59,11.63a.39.39,0,0,1-.2-.05l-.52-.3a.39.39,0,0,1,.39-.67l.52.3a.4.4,0,0,1,.15.53A.4.4,0,0,1,12.59,11.63Z"/><ellipse class="cls-5" cx="6.95" cy="12.57" rx="1.37" ry="1.35"/><ellipse class="cls-4" cx="6.95" cy="12.57" rx="0.63" ry="0.62"/><path class="cls-4" d="M5.77,10.88a1.52,1.52,0,0,1,1.07-.46,1.37,1.37,0,0,1,.6.12,1.32,1.32,0,0,1,.47.34,2.29,2.29,0,0,0-1.06-.27A2.82,2.82,0,0,0,5.77,10.88Z"/><ellipse class="cls-5" cx="10.08" cy="12.57" rx="1.37" ry="1.35"/><ellipse class="cls-4" cx="10.08" cy="12.57" rx="0.63" ry="0.62"/><path class="cls-4" d="M11.26,10.88a2.82,2.82,0,0,0-1.08-.27,2.36,2.36,0,0,0-1.07.27,1.45,1.45,0,0,1,.48-.34,1.36,1.36,0,0,1,.59-.12A1.53,1.53,0,0,1,11.26,10.88Z"/></g></g></g></svg>